<svg width="1200" height="220" viewBox="0 0 1200 220" xmlns="http://www.w3.org/2000/svg">
  <rect width="1200" height="220" fill="#f7f7f8"></rect>
  <g transform="translate(40,30)">
    <rect x="0" y="0" width="1120" height="40" rx="8" fill="#d32f2f"></rect>
    <text x="560" y="26" text-anchor="middle" font-family="Inter, Arial, sans-serif" font-size="18" fill="#ffffff">
      Audi AAN → 3B → B3 7A • Repin &amp; Conversion Guide
    </text>

    <!-- ECU T55 Connector -->
    <rect x="60" y="90" width="180" height="70" rx="8" fill="#eceff1" stroke="#555"></rect>
    <text x="150" y="110" text-anchor="middle" font-family="Inter, Arial, sans-serif" font-size="13" fill="#333">ECU T55</text>

    <!-- Harness to components -->
    <line x1="240" y1="120" x2="480" y2="120" stroke="#1976d2" stroke-width="3"></line>
    <line x1="240" y1="140" x2="480" y2="160" stroke="#1976d2" stroke-width="3"></line>

    <!-- Power Stage -->
    <rect x="480" y="105" width="160" height="45" rx="8" fill="#e8f5e9" stroke="#2e7d32"></rect>
    <text x="560" y="132" text-anchor="middle" font-family="Inter, Arial, sans-serif" font-size="12" fill="#2e7d32">N124 Power Stage</text>

    <!-- Coil -->
    <line x1="640" y1="125" x2="860" y2="125" stroke="#1976d2" stroke-width="3"></line>
    <circle cx="880" cy="125" r="26" fill="#fff8e1" stroke="#f9a825" stroke-width="3"></circle>
    <text x="880" y="130" text-anchor="middle" font-family="Inter, Arial, sans-serif" font-size="12" fill="#555">Coil/Dist</text>

    <!-- Legend -->
    <line x1="60" y1="180" x2="110" y2="180" stroke="#d32f2f" stroke-width="3"></line>
    <text x="120" y="184" font-family="Inter, Arial, sans-serif" font-size="12" fill="#444">Power</text>
    <line x1="180" y1="180" x2="230" y2="180" stroke="#795548" stroke-width="3"></line>
    <text x="240" y="184" font-family="Inter, Arial, sans-serif" font-size="12" fill="#444">Ground</text>
    <line x1="300" y1="180" x2="350" y2="180" stroke="#1976d2" stroke-width="3"></line>
    <text x="360" y="184" font-family="Inter, Arial, sans-serif" font-size="12" fill="#444">Signal</text>
  </g>
</svg>
